<svg id="189c72b3-86e0-42dd-91bb-c9ff21383612" data-name="Layer 1" xmlns="http://www.w3.org/2000/svg" viewBox="0 0 550.76 486.49"><defs><style>.\36 edee810-f3a4-491b-8597-add255deadd1{fill:#231f20;}</style></defs><title>linkedin</title><g id="linkedin" data-name="linkedin"><path class="6edee810-f3a4-491b-8597-add255deadd1" d="M414.53,651.31H342.46V538.41c0-26.93-.52-61.56-37.5-61.56-37.55,0-43.28,29.32-43.28,59.61V651.31H189.55V419.15h69.22v31.71h1c9.63-18.24,33.17-37.5,68.28-37.5,73,0,86.5,48.07,86.5,110.6V651.31ZM108.2,387.41A41.84,41.84,0,1,1,150,345.56,41.82,41.82,0,0,1,108.2,387.41Zm36.09,263.89H72.1V419.15h72.19V651.31ZM450.47,236.76H35.91C16.09,236.76,0,252.48,0,271.81V688.14c0,19.37,16.09,35.1,35.91,35.1H450.47c19.85,0,36-15.73,36-35.1V271.81C486.5,252.48,470.32,236.76,450.47,236.76Z" transform="translate(0 -236.76)"/><path class="6edee810-f3a4-491b-8597-add255deadd1" d="M503.29,629.71h6.93v21.59H514V629.71h6.92v-3.77H503.29v3.77Z" transform="translate(0 -236.76)"/><path class="6edee810-f3a4-491b-8597-add255deadd1" d="M545.4,625.95L538,644.56l-7.39-18.61h-5.37v25.36H529V632l7.77,19.3h2.5L547,632v19.3h3.75V625.95H545.4Z" transform="translate(0 -236.76)"/></g></svg>
